<svg xmlns="http://www.w3.org/2000/svg" xmlns:xlink="http://www.w3.org/1999/xlink" xmlns:lucid="lucid" width="879" height="709"><g transform="translate(-481 -481)" lucid:page-tab-id="0_0"><path d="M0 0h1870.87v1322.83H0z" fill="#fff"/><path d="M979.66 843.17c-1.14.1-2.05.34-2.96.8l-39.44 19.43c-2.16 1.02-3.64 2.84-4.1 5.23l-9.77 43.76c-.47 2.04-.13 4.08 1 5.9.13.23.24.34.47.57l27.28 35c1.48 1.94 3.52 2.97 5.9 2.97h43.9c2.38 0 4.42-1.03 5.9-2.96l27.28-35c1.48-1.94 2.05-4.2 1.48-6.6l-9.77-43.65c-.45-2.4-1.93-4.2-4.1-5.23l-39.43-19.44c-1.25-.57-2.4-.9-3.64-.8z" stroke="#000" stroke-opacity="0" stroke-width="3.83" fill="#326ce5"/><path d="M979.64 840c-1.2.12-2.16.36-3.12.84l-41.64 20.52c-2.28 1.08-3.84 3-4.32 5.52l-10.32 46.2c-.48 2.16-.12 4.32 1.08 6.24.12.24.24.36.48.6l28.8 36.96c1.56 2.04 3.72 3.12 6.24 3.12h46.32c2.52 0 4.68-1.08 6.24-3.12l28.8-36.96c1.56-2.04 2.16-4.44 1.56-6.84l-10.32-46.2c-.48-2.52-2.04-4.44-4.32-5.52l-41.64-20.52c-1.32-.6-2.52-.96-3.84-.84zm0 3.24c1.32-.12 2.4.12 3.6.72l39.6 19.44c2.04 1.08 3.48 2.88 4.08 5.28l9.72 43.68c.48 2.4 0 4.56-1.44 6.48l-27.36 35.04c-1.44 1.92-3.48 3-5.88 3h-43.92c-2.4 0-4.44-1.08-5.88-3l-27.36-35.04c-.12-.12-.24-.36-.36-.6-1.2-1.8-1.56-3.72-1.08-5.88l9.72-43.68c.6-2.4 1.92-4.2 4.08-5.28l39.6-19.44c.96-.48 1.8-.72 2.88-.84z" stroke="#000" stroke-opacity="0" stroke-width="3.83" fill="#fff"/><path d="M974.02 942.07c0 3.56-1.2 5.35-3.64 5.35-1.53 0-2.56-.6-3.08-1.8h-.05c.03.07.04.6.04 1.63v4h-1.66v-12.17c0-1.05-.02-1.74-.06-2.1h1.6l.02.3.05.7.02.66h.03c.3-.62.7-1.08 1.17-1.37.48-.3 1.1-.45 1.9-.45 1.23 0 2.14.42 2.74 1.27.62.83.92 2.15.92 3.97zm-1.73.03c0-1.42-.2-2.44-.56-3.05-.38-.62-.97-.92-1.78-.92-.66 0-1.17.15-1.54.43-.37.28-.65.73-.85 1.33-.2.58-.28 1.38-.28 2.33 0 1.35.2 2.33.6 2.97.43.63 1.1.95 2.04.95.82 0 1.4-.3 1.78-.92.38-.62.57-1.66.57-3.13zM984.48 942.1c0 1.8-.4 3.13-1.15 4-.76.88-1.88 1.32-3.33 1.32-1.45 0-2.54-.46-3.28-1.36-.74-.92-1.1-2.24-1.1-3.96 0-3.53 1.47-5.3 4.44-5.3 1.52 0 2.63.45 3.34 1.3.72.87 1.08 2.2 1.08 4zm-1.73 0c0-1.4-.22-2.43-.62-3.07-.4-.64-1.08-.95-2.04-.95-.98 0-1.68.3-2.1.97-.44.65-.66 1.67-.66 3.05 0 1.35.2 2.37.64 3.05.42.68 1.1 1 2 1 1 0 1.7-.3 2.12-.97.43-.66.65-1.7.65-3.08zM992.8 945.58c-.3.66-.7 1.12-1.22 1.4-.5.3-1.13.43-1.87.43-1.24 0-2.17-.43-2.76-1.3-.58-.86-.88-2.18-.88-3.94 0-3.57 1.22-5.35 3.65-5.35.76 0 1.38.16 1.9.44.5.28.9.74 1.2 1.35v-5.4h1.64v11.9c0 1.08.03 1.8.06 2.13h-1.58l-.06-.7c0-.37-.03-.68-.03-.95zm-5-3.48c0 1.44.18 2.46.54 3.07.37.62.96.94 1.8.94.93 0 1.6-.33 2.02-1 .43-.67.64-1.7.64-3.1 0-1.36-.2-2.36-.64-2.98-.42-.63-1.1-.96-2-.96-.84 0-1.44.33-1.82.97-.36.63-.55 1.65-.55 3.07z" stroke="#000" stroke-opacity="0" fill="#fff"/><path d="M955.92 880.2L980 873l24.1 7.2-24.1 7.2zM955.92 882.95v26.4l22.43 12.83.12-32.32zM1004.08 882.95v26.4l-22.44 12.83-.1-32.32z" stroke="#000" stroke-opacity="0" stroke-width="3.77" fill="#fff"/><use xlink:href="#a" transform="matrix(1,0,0,1,890,969) translate(5.617283950617292 17.77777777777778)"/><path d="M1139.66 503.17c-1.14.1-2.05.34-2.96.8l-39.44 19.43c-2.16 1.02-3.64 2.84-4.1 5.23l-9.77 43.76c-.47 2.04-.13 4.08 1 5.9.13.23.24.34.47.57l27.28 35c1.48 1.94 3.52 2.97 5.9 2.97h43.9c2.38 0 4.42-1.03 5.9-2.96l27.28-35c1.48-1.94 2.05-4.2 1.48-6.6l-9.77-43.65c-.45-2.4-1.93-4.2-4.1-5.23l-39.43-19.44c-1.25-.57-2.4-.9-3.64-.8z" stroke="#000" stroke-opacity="0" stroke-width="3.83" fill="#326ce5"/><path d="M1139.64 500c-1.2.12-2.16.36-3.12.84l-41.64 20.52c-2.28 1.08-3.84 3-4.32 5.52l-10.32 46.2c-.48 2.16-.12 4.32 1.08 6.24.12.24.24.36.48.6l28.8 36.96c1.56 2.04 3.72 3.12 6.24 3.12h46.32c2.52 0 4.68-1.08 6.24-3.12l28.8-36.96c1.56-2.04 2.16-4.44 1.56-6.84l-10.32-46.2c-.48-2.52-2.04-4.44-4.32-5.52l-41.64-20.52c-1.32-.6-2.52-.96-3.84-.84zm0 3.24c1.32-.12 2.4.12 3.6.72l39.6 19.44c2.04 1.08 3.48 2.88 4.08 5.28l9.72 43.68c.48 2.4 0 4.56-1.44 6.48l-27.36 35.04c-1.44 1.92-3.48 3-5.88 3h-43.92c-2.4 0-4.44-1.08-5.88-3l-27.36-35.04c-.12-.12-.24-.36-.36-.6-1.2-1.8-1.56-3.72-1.08-5.88l9.72-43.68c.6-2.4 1.92-4.2 4.08-5.28l39.6-19.44c.96-.48 1.8-.72 2.88-.84z" stroke="#000" stroke-opacity="0" stroke-width="3.83" fill="#fff"/><path d="M1134.02 602.07c0 3.56-1.2 5.35-3.64 5.35-1.53 0-2.56-.6-3.08-1.8h-.05c.03.07.04.6.04 1.63v4h-1.66v-12.17c0-1.05-.02-1.74-.06-2.1h1.6l.02.3.05.7.02.66h.03c.3-.62.7-1.08 1.17-1.37.48-.3 1.1-.45 1.9-.45 1.23 0 2.14.42 2.74 1.27.62.83.92 2.15.92 3.97zm-1.73.03c0-1.42-.2-2.44-.56-3.05-.38-.62-.97-.92-1.78-.92-.66 0-1.17.15-1.54.43-.37.28-.65.73-.85 1.33-.2.58-.28 1.38-.28 2.33 0 1.35.2 2.33.6 2.97.43.63 1.1.95 2.04.95.82 0 1.4-.3 1.78-.92.38-.62.57-1.66.57-3.13zM1144.48 602.1c0 1.8-.4 3.13-1.15 4-.76.88-1.88 1.32-3.33 1.32-1.45 0-2.54-.46-3.28-1.36-.74-.92-1.1-2.24-1.1-3.96 0-3.53 1.47-5.3 4.44-5.3 1.52 0 2.63.45 3.34 1.3.72.87 1.08 2.2 1.08 4zm-1.73 0c0-1.4-.22-2.43-.62-3.07-.4-.64-1.08-.95-2.04-.95-.98 0-1.68.3-2.1.97-.44.65-.66 1.67-.66 3.05 0 1.35.2 2.37.64 3.05.42.68 1.1 1 2 1 1 0 1.7-.3 2.12-.97.43-.66.65-1.7.65-3.08zM1152.8 605.58c-.3.66-.7 1.12-1.22 1.4-.5.3-1.13.43-1.87.43-1.24 0-2.17-.43-2.76-1.3-.58-.86-.88-2.18-.88-3.94 0-3.57 1.22-5.35 3.65-5.35.76 0 1.38.16 1.9.44.5.28.9.74 1.2 1.35v-5.4h1.64v11.9c0 1.08.03 1.8.06 2.13h-1.58l-.06-.7c0-.37-.03-.68-.03-.95zm-5-3.48c0 1.44.18 2.46.54 3.07.37.62.96.94 1.8.94.93 0 1.6-.33 2.02-1 .43-.67.64-1.7.64-3.1 0-1.36-.2-2.36-.64-2.98-.42-.63-1.1-.96-2-.96-.84 0-1.44.33-1.82.97-.36.63-.55 1.65-.55 3.07z" stroke="#000" stroke-opacity="0" fill="#fff"/><path d="M1115.92 540.2L1140 533l24.1 7.2-24.1 7.2zM1115.92 542.95v26.4l22.43 12.83.12-32.32zM1164.08 542.95v26.4l-22.44 12.83-.1-32.32z" stroke="#000" stroke-opacity="0" stroke-width="3.77" fill="#fff"/><use xlink:href="#b" transform="matrix(1,0,0,1,1050,629) translate(23.395061728395063 17.77777777777778)"/><use xlink:href="#c" transform="matrix(1,0,0,1,1050,629) translate(86.2962962962963 17.77777777777778)"/><path d="M1159.66 1003.17c-1.14.1-2.05.34-2.96.8l-39.44 19.43c-2.16 1.02-3.64 2.84-4.1 5.23l-9.77 43.76c-.47 2.04-.13 4.08 1 5.9.13.23.24.34.47.57l27.28 35c1.48 1.94 3.52 2.97 5.9 2.97h43.9c2.38 0 4.42-1.03 5.9-2.96l27.28-35c1.48-1.94 2.05-4.2 1.48-6.6l-9.77-43.65c-.45-2.4-1.93-4.2-4.1-5.23l-39.43-19.44c-1.25-.57-2.4-.9-3.64-.8z" stroke="#000" stroke-opacity="0" stroke-width="3.83" fill="#326ce5"/><path d="M1159.64 1000c-1.2.12-2.16.36-3.12.84l-41.64 20.52c-2.28 1.08-3.84 3-4.32 5.52l-10.32 46.2c-.48 2.16-.12 4.32 1.08 6.24.12.24.24.36.48.6l28.8 36.96c1.56 2.04 3.72 3.12 6.24 3.12h46.32c2.52 0 4.68-1.08 6.24-3.12l28.8-36.96c1.56-2.04 2.16-4.44 1.56-6.84l-10.32-46.2c-.48-2.52-2.04-4.44-4.32-5.52l-41.64-20.52c-1.32-.6-2.52-.96-3.84-.84zm0 3.24c1.32-.12 2.4.12 3.6.72l39.6 19.44c2.04 1.08 3.48 2.88 4.08 5.28l9.72 43.68c.48 2.4 0 4.56-1.44 6.48l-27.36 35.04c-1.44 1.92-3.48 3-5.88 3h-43.92c-2.4 0-4.44-1.08-5.88-3l-27.36-35.04c-.12-.12-.24-.36-.36-.6-1.2-1.8-1.56-3.72-1.08-5.88l9.72-43.68c.6-2.4 1.92-4.2 4.08-5.28l39.6-19.44c.96-.48 1.8-.72 2.88-.84z" stroke="#000" stroke-opacity="0" stroke-width="3.83" fill="#fff"/><path d="M1150.25 1102.07c0 1.36.2 2.36.62 3.02.42.65 1.05.97 1.88.97.6 0 1.08-.16 1.47-.5.4-.32.64-.82.73-1.5l1.67.1c-.13 1-.54 1.78-1.22 2.36-.68.6-1.55.88-2.6.88-1.4 0-2.45-.43-3.18-1.33-.73-.92-1.1-2.23-1.1-3.97 0-1.72.37-3.03 1.1-3.93.73-.9 1.8-1.36 3.15-1.36 1.02 0 1.87.3 2.53.83.67.54 1.1 1.28 1.26 2.23l-1.7.13c-.08-.57-.3-1.03-.64-1.36-.35-.33-.85-.5-1.5-.5-.86 0-1.5.3-1.9.9-.38.6-.57 1.6-.57 3.03zM1164.15 1107.23v-6.5c0-.97-.13-1.66-.4-2.03-.26-.4-.73-.57-1.4-.57-.7 0-1.26.28-1.67.83-.42.55-.62 1.33-.62 2.34v5.93h-1.64v-8.04c0-1.2-.02-1.93-.06-2.2h1.56l.02.26v.48c.03.18.04.5.05 1h.02c.36-.72.76-1.22 1.22-1.5.46-.28 1.02-.43 1.67-.43.76 0 1.37.17 1.8.47.44.32.74.8.9 1.48h.04c.34-.7.76-1.17 1.23-1.48.5-.3 1.08-.46 1.78-.46 1 0 1.72.3 2.18.86.46.56.7 1.48.7 2.76v6.8h-1.64v-6.48c0-.98-.15-1.67-.4-2.04-.27-.4-.75-.57-1.43-.57-.72 0-1.3.28-1.68.83-.4.55-.62 1.33-.62 2.34v5.93z" stroke="#000" stroke-opacity="0" fill="#fff"/><path d="M1148.98 1032.37v5.44h38.76v-5.43zM1132.26 1032.37v5.44h9.7v-5.43zM1163.07 1046.9v5.42h24.67v-5.43z" stroke="#000" stroke-opacity="0" stroke-width="3.77" fill="#fff"/><path d="M1146.35 1046.9v5.42h9.7v-5.43zM1163.07 1061.4v5.44h24.67v-5.44zM1146.35 1061.4v5.44h9.7v-5.44zM1148.98 1075.9v5.44h38.76v-5.43zM1132.26 1075.9v5.44h9.7v-5.43z" stroke="#000" stroke-opacity="0" stroke-width="2.99" fill="#fff"/><use xlink:href="#d" transform="matrix(1,0,0,1,1070,1129) translate(36.388888888888886 17.77777777777778)"/><path d="M1102.16 1060H986c-3.3 0-6-2.7-6-6v-75.5" stroke="#5e5e5e" stroke-width="2" fill="none"/><path d="M1102.94 1061h-.8v-2h1.25" fill="#5e5e5e"/><path d="M980 963.24l4.64 14.26h-9.28z" stroke="#5e5e5e" stroke-width="2" fill="#5e5e5e"/><path d="M789.66 1003.17c-1.14.1-2.05.34-2.96.8l-39.44 19.43c-2.16 1.02-3.64 2.84-4.1 5.23l-9.77 43.76c-.47 2.04-.13 4.08 1 5.9.13.23.24.34.47.57l27.28 35c1.48 1.94 3.52 2.97 5.9 2.97h43.9c2.38 0 4.42-1.03 5.9-2.96l27.28-35c1.48-1.94 2.05-4.2 1.48-6.6l-9.77-43.65c-.45-2.4-1.93-4.2-4.1-5.23l-39.43-19.44c-1.25-.57-2.4-.9-3.64-.8z" stroke="#000" stroke-opacity="0" stroke-width="3.83" fill="#326ce5"/><path d="M789.64 1000c-1.2.12-2.16.36-3.12.84l-41.64 20.52c-2.28 1.08-3.84 3-4.32 5.52l-10.32 46.2c-.48 2.16-.12 4.32 1.08 6.24.12.24.24.36.48.6l28.8 36.96c1.56 2.04 3.72 3.12 6.24 3.12h46.32c2.52 0 4.68-1.08 6.24-3.12l28.8-36.96c1.56-2.04 2.16-4.44 1.56-6.84l-10.32-46.2c-.48-2.52-2.04-4.44-4.32-5.52l-41.64-20.52c-1.32-.6-2.52-.96-3.84-.84zm0 3.24c1.32-.12 2.4.12 3.6.72l39.6 19.44c2.04 1.08 3.48 2.88 4.08 5.28l9.72 43.68c.48 2.4 0 4.56-1.44 6.48l-27.36 35.04c-1.44 1.92-3.48 3-5.88 3h-43.92c-2.4 0-4.44-1.08-5.88-3l-27.36-35.04c-.12-.12-.24-.36-.36-.6-1.2-1.8-1.56-3.72-1.08-5.88l9.72-43.68c.6-2.4 1.92-4.2 4.08-5.28l39.6-19.44c.96-.48 1.8-.72 2.88-.84z" stroke="#000" stroke-opacity="0" stroke-width="3.83" fill="#fff"/><path d="M784.16 1107.23h-1.96l-3.6-10.23h1.76l2.2 6.66.62 2.24.32-1.1.35-1.12 2.26-6.68h1.76zM797.58 1102.1c0 1.8-.4 3.13-1.15 4-.76.88-1.88 1.32-3.33 1.32-1.45 0-2.54-.46-3.28-1.36-.74-.92-1.1-2.24-1.1-3.96 0-3.53 1.47-5.3 4.44-5.3 1.52 0 2.62.45 3.34 1.3.72.87 1.08 2.2 1.08 4zm-1.73 0c0-1.4-.22-2.43-.62-3.07-.4-.64-1.08-.95-2.04-.95-.98 0-1.68.3-2.1.97-.44.65-.66 1.67-.66 3.05 0 1.35.2 2.37.64 3.05.42.68 1.1 1 2 1 1 0 1.7-.3 2.12-.97.43-.66.65-1.7.65-3.08zM799.64 1107.23v-14.02h1.65v14.03z" stroke="#000" stroke-opacity="0" fill="#fff"/><path d="M759.2 1048.13c0 4.25 13.8 7.7 30.8 7.7s30.8-3.45 30.8-7.7V1069c0 4.24-13.8 7.7-30.8 7.7s-30.8-3.46-30.8-7.7z" stroke="#000" stroke-opacity="0" stroke-width="3.77" fill="#fff"/><path d="M759.2 1048.13c0-4.26 13.8-7.7 30.8-7.7s30.8 3.44 30.8 7.7c0 4.25-13.8 7.7-30.8 7.7s-30.8-3.45-30.8-7.7z" stroke="#000" stroke-opacity="0" stroke-width="3.77" fill="#fff"/><path d="M790 1039.5c-8.56 0-16.3.88-22 2.3-2.84.72-5.12 1.55-6.83 2.55-1.65 1-2.85 2.2-2.85 3.77V1069c0 1.56 1.2 2.78 2.85 3.77 1.7 1 4 1.83 6.84 2.55 5.7 1.4 13.44 2.3 22 2.3 8.55 0 16.27-.9 21.97-2.3 2.86-.72 5.14-1.56 6.85-2.55 1.64-1 2.85-2.2 2.85-3.77v-20.88c0-1.56-1.2-2.78-2.85-3.77-1.7-1-4-1.83-6.85-2.56-5.7-1.42-13.42-2.3-21.98-2.3zm0 1.84c8.42 0 16.08.83 21.53 2.2 2.8.7 4.94 1.53 6.4 2.37 1.46.85 1.96 1.68 1.96 2.22 0 .57-.5 1.37-1.97 2.2-1.46.88-3.6 1.68-6.4 2.37-5.45 1.36-13.1 2.24-21.54 2.24-8.43 0-16.1-.88-21.54-2.25-2.8-.7-4.95-1.5-6.4-2.37-1.46-.84-1.97-1.64-1.97-2.2 0-.55.5-1.38 1.96-2.22 1.45-.83 3.6-1.67 6.4-2.35 5.44-1.38 13.1-2.2 21.53-2.2zm-29.9 9.14c.25.53.5 1 1.07 1.45 1.58 1.18 4 1.83 6.84 2.55 5.7 1.4 13.44 2.25 22 2.25 8.55 0 16.27-.84 21.97-2.25 2.86-.72 5.14-1.56 6.85-2.55.63-.46.88-1.03 1.07-1.45V1069c0 .53-.5 1.37-1.97 2.2-1.46.84-3.6 1.68-6.4 2.37-5.45 1.37-13.1 2.2-21.54 2.2-8.43 0-16.1-.83-21.54-2.2-2.8-.7-4.95-1.53-6.4-2.36-1.46-.83-1.97-1.67-1.97-2.2z" stroke="#000" stroke-opacity="0" stroke-width="3.77" fill="#326ce5"/><use xlink:href="#e" transform="matrix(1,0,0,1,700,1129) translate(14.135802469135811 17.77777777777778)"/><path d="M789.66 503.17c-1.14.1-2.05.34-2.96.8l-39.44 19.43c-2.16 1.02-3.64 2.84-4.1 5.23l-9.77 43.76c-.47 2.04-.13 4.08 1 5.9.13.23.24.34.47.57l27.28 35c1.48 1.94 3.52 2.97 5.9 2.97h43.9c2.38 0 4.42-1.03 5.9-2.96l27.28-35c1.48-1.94 2.05-4.2 1.48-6.6l-9.77-43.65c-.45-2.4-1.93-4.2-4.1-5.23l-39.43-19.44c-1.25-.57-2.4-.9-3.64-.8z" stroke="#000" stroke-opacity="0" stroke-width="3.83" fill="#326ce5"/><path d="M789.64 500c-1.2.12-2.16.36-3.12.84l-41.64 20.52c-2.28 1.08-3.84 3-4.32 5.52l-10.32 46.2c-.48 2.16-.12 4.32 1.08 6.24.12.24.24.36.48.6l28.8 36.96c1.56 2.04 3.72 3.12 6.24 3.12h46.32c2.52 0 4.68-1.08 6.24-3.12l28.8-36.96c1.56-2.04 2.16-4.44 1.56-6.84l-10.32-46.2c-.48-2.52-2.04-4.44-4.32-5.52l-41.64-20.52c-1.32-.6-2.52-.96-3.84-.84zm0 3.24c1.32-.12 2.4.12 3.6.72l39.6 19.44c2.04 1.08 3.48 2.88 4.08 5.28l9.72 43.68c.48 2.4 0 4.56-1.44 6.48l-27.36 35.04c-1.44 1.92-3.48 3-5.88 3h-43.92c-2.4 0-4.44-1.08-5.88-3l-27.36-35.04c-.12-.12-.24-.36-.36-.6-1.2-1.8-1.56-3.72-1.08-5.88l9.72-43.68c.6-2.4 1.92-4.2 4.08-5.28l39.6-19.44c.96-.48 1.8-.72 2.88-.84z" stroke="#000" stroke-opacity="0" stroke-width="3.83" fill="#fff"/><path d="M784.02 602.07c0 3.56-1.2 5.35-3.64 5.35-1.53 0-2.56-.6-3.08-1.8h-.05c.03.07.04.6.04 1.63v4h-1.66v-12.17c0-1.05-.02-1.74-.06-2.1h1.6l.02.3.05.7.02.66h.03c.3-.62.7-1.08 1.17-1.37.48-.3 1.1-.45 1.9-.45 1.23 0 2.14.42 2.74 1.27.62.83.92 2.15.92 3.97zm-1.73.03c0-1.42-.2-2.44-.56-3.05-.38-.62-.97-.92-1.78-.92-.66 0-1.17.15-1.54.43-.37.28-.65.73-.85 1.33-.2.58-.28 1.38-.28 2.33 0 1.35.2 2.33.6 2.97.43.63 1.1.95 2.04.95.82 0 1.4-.3 1.78-.92.38-.62.57-1.66.57-3.13zM794.48 602.1c0 1.8-.4 3.13-1.15 4-.76.88-1.88 1.32-3.33 1.32-1.45 0-2.54-.46-3.28-1.36-.74-.92-1.1-2.24-1.1-3.96 0-3.53 1.47-5.3 4.44-5.3 1.52 0 2.63.45 3.34 1.3.72.87 1.08 2.2 1.08 4zm-1.73 0c0-1.4-.22-2.43-.62-3.07-.4-.64-1.08-.95-2.04-.95-.98 0-1.68.3-2.1.97-.44.65-.66 1.67-.66 3.05 0 1.35.2 2.37.64 3.05.42.68 1.1 1 2 1 1 0 1.7-.3 2.12-.97.43-.66.65-1.7.65-3.08zM802.8 605.58c-.3.66-.7 1.12-1.22 1.4-.5.3-1.13.43-1.87.43-1.24 0-2.17-.43-2.76-1.3-.58-.86-.88-2.18-.88-3.94 0-3.57 1.22-5.35 3.65-5.35.76 0 1.38.16 1.9.44.5.28.9.74 1.2 1.35v-5.4h1.64v11.9c0 1.08.03 1.8.06 2.13h-1.58l-.06-.7c0-.37-.03-.68-.03-.95zm-5-3.48c0 1.44.18 2.46.54 3.07.37.62.96.94 1.8.94.93 0 1.6-.33 2.02-1 .43-.67.64-1.7.64-3.1 0-1.36-.2-2.36-.64-2.98-.42-.63-1.1-.96-2-.96-.84 0-1.44.33-1.82.97-.36.63-.55 1.65-.55 3.07z" stroke="#000" stroke-opacity="0" fill="#fff"/><path d="M765.92 540.2L790 533l24.1 7.2-24.1 7.2zM765.92 542.95v26.4l22.43 12.83.12-32.32zM814.08 542.95v26.4l-22.44 12.83-.1-32.32z" stroke="#000" stroke-opacity="0" stroke-width="3.77" fill="#fff"/><use xlink:href="#f" transform="matrix(1,0,0,1,700,629) translate(18.4567901234568 17.77777777777778)"/><use xlink:href="#c" transform="matrix(1,0,0,1,700,629) translate(91.23456790123457 17.77777777777778)"/><path d="M1020 706c0-3.3 2.7-6 6-6h248c3.3 0 6 2.7 6 6v48c0 3.3-2.7 6-6 6h-248c-3.3 0-6-2.7-6-6z" stroke="#5e5e5e" stroke-width="3" fill="#fff"/><use xlink:href="#g" transform="matrix(1,0,0,1,1032,712) translate(59.481481481481474 22.27777777777778)"/><path d="M660 706c0-3.3 2.7-6 6-6h248c3.3 0 6 2.7 6 6v48c0 3.3-2.7 6-6 6H666c-3.3 0-6-2.7-6-6z" stroke="#5e5e5e" stroke-width="3" fill="#fff"/><use xlink:href="#h" transform="matrix(1,0,0,1,672,712) translate(45.90123456790123 22.27777777777778)"/><path d="M922.16 900h-131.5c-3.3 0-6-2.7-6-6V780" stroke="#5e5e5e" stroke-width="2" fill="none"/><path d="M922.94 901h-.8v-2h1.25" fill="#5e5e5e"/><path d="M784.66 764.74L789.3 779h-9.27z" stroke="#5e5e5e" stroke-width="2" fill="#5e5e5e"/><path d="M1037.84 900H1144c3.3 0 6-2.7 6-6V780" stroke="#5e5e5e" stroke-width="2" fill="none"/><path d="M1037.86 901h-.8l-.45-2h1.26" fill="#5e5e5e"/><path d="M1150 764.74l4.64 14.26h-9.28z" stroke="#5e5e5e" stroke-width="2" fill="#5e5e5e"/><path d="M1150 697.5v-59" stroke="#5e5e5e" stroke-width="2" fill="none"/><path d="M1151 698.5h-2v-1.03h2" fill="#5e5e5e"/><path d="M1150 623.24l4.64 14.26h-9.28z" stroke="#5e5e5e" stroke-width="2" fill="#5e5e5e"/><path d="M790 697.5v-59" stroke="#5e5e5e" stroke-width="2" fill="none"/><path d="M791 698.5h-2v-1.03h2" fill="#5e5e5e"/><path d="M790 623.24l4.64 14.26h-9.28z" stroke="#5e5e5e" stroke-width="2" fill="#5e5e5e"/><path d="M847.84 1060H974c3.3 0 6-2.7 6-6v-75.5" stroke="#5e5e5e" stroke-width="2" fill="none"/><path d="M847.86 1061h-.8l-.45-2h1.26" fill="#5e5e5e"/><path d="M980 963.24l4.64 14.26h-9.28z" stroke="#5e5e5e" stroke-width="2" fill="#5e5e5e"/><path d="M559.66 1003.17c-1.14.1-2.05.34-2.96.8l-39.44 19.43c-2.16 1.02-3.64 2.84-4.1 5.23l-9.77 43.76c-.47 2.04-.13 4.08 1 5.9.13.23.24.34.47.57l27.28 35c1.48 1.94 3.52 2.97 5.9 2.97h43.9c2.38 0 4.42-1.03 5.9-2.96l27.28-35c1.48-1.94 2.05-4.2 1.48-6.6l-9.77-43.65c-.45-2.4-1.93-4.2-4.1-5.23l-39.43-19.44c-1.25-.57-2.4-.9-3.64-.8z" stroke="#000" stroke-opacity="0" stroke-width="3.83" fill="#326ce5"/><path d="M559.64 1000c-1.2.12-2.16.36-3.12.84l-41.64 20.52c-2.28 1.08-3.84 3-4.32 5.52l-10.32 46.2c-.48 2.16-.12 4.32 1.08 6.24.12.24.24.36.48.6l28.8 36.96c1.56 2.04 3.72 3.12 6.24 3.12h46.32c2.52 0 4.68-1.08 6.24-3.12l28.8-36.96c1.56-2.04 2.16-4.44 1.56-6.84l-10.32-46.2c-.48-2.52-2.04-4.44-4.32-5.52l-41.64-20.52c-1.32-.6-2.52-.96-3.84-.84zm0 3.24c1.32-.12 2.4.12 3.6.72l39.6 19.44c2.04 1.08 3.48 2.88 4.08 5.28l9.72 43.68c.48 2.4 0 4.56-1.44 6.48l-27.36 35.04c-1.44 1.92-3.48 3-5.88 3h-43.92c-2.4 0-4.44-1.08-5.88-3l-27.36-35.04c-.12-.12-.24-.36-.36-.6-1.2-1.8-1.56-3.72-1.08-5.88l9.72-43.68c.6-2.4 1.92-4.2 4.08-5.28l39.6-19.44c.96-.48 1.8-.72 2.88-.84z" stroke="#000" stroke-opacity="0" stroke-width="3.83" fill="#fff"/><path d="M550.25 1102.07c0 1.36.2 2.36.62 3.02.42.65 1.05.97 1.88.97.6 0 1.08-.16 1.47-.5.4-.32.64-.82.73-1.5l1.67.1c-.13 1-.54 1.78-1.22 2.36-.68.6-1.55.88-2.6.88-1.4 0-2.45-.43-3.18-1.33-.73-.92-1.1-2.23-1.1-3.97 0-1.72.37-3.03 1.1-3.93.73-.9 1.8-1.36 3.15-1.36 1.02 0 1.87.3 2.53.83.67.54 1.1 1.28 1.26 2.23l-1.7.13c-.08-.57-.3-1.03-.64-1.36-.35-.33-.85-.5-1.5-.5-.86 0-1.5.3-1.9.9-.38.6-.57 1.6-.57 3.03zM564.15 1107.23v-6.5c0-.97-.13-1.66-.4-2.03-.26-.4-.73-.57-1.4-.57-.7 0-1.26.28-1.67.83-.42.55-.62 1.33-.62 2.34v5.93h-1.64v-8.04c0-1.2-.02-1.93-.06-2.2h1.56l.02.26v.48c.03.18.04.5.05 1h.02c.36-.72.76-1.22 1.22-1.5.46-.28 1.02-.43 1.67-.43.76 0 1.37.17 1.8.47.44.32.74.8.9 1.48h.04c.34-.7.76-1.17 1.23-1.48.5-.3 1.08-.46 1.78-.46 1 0 1.72.3 2.18.86.46.56.7 1.48.7 2.76v6.8h-1.64v-6.48c0-.98-.15-1.67-.4-2.04-.27-.4-.75-.57-1.43-.57-.72 0-1.3.28-1.68.83-.4.55-.62 1.33-.62 2.34v5.93z" stroke="#000" stroke-opacity="0" fill="#fff"/><path d="M548.98 1032.37v5.44h38.76v-5.43zM532.26 1032.37v5.44h9.7v-5.43zM563.07 1046.9v5.42h24.67v-5.43z" stroke="#000" stroke-opacity="0" stroke-width="3.77" fill="#fff"/><path d="M546.35 1046.9v5.42h9.7v-5.43zM563.07 1061.4v5.44h24.67v-5.44zM546.35 1061.4v5.44h9.7v-5.44zM548.98 1075.9v5.44h38.76v-5.43zM532.26 1075.9v5.44h9.7v-5.43z" stroke="#000" stroke-opacity="0" stroke-width="2.99" fill="#fff"/><use xlink:href="#i" transform="matrix(1,0,0,1,470,1129) translate(44.32098765432099 17.77777777777778)"/><use xlink:href="#j" transform="matrix(1,0,0,1,470,1129) translate(93.7037037037037 17.77777777777778)"/><path d="M617.84 1060h96.82" stroke="#5e5e5e" stroke-width="2" fill="none"/><path d="M617.86 1061h-.8l-.45-2h1.26" fill="#5e5e5e"/><path d="M729.93 1060l-14.27 4.64v-9.28z" stroke="#5e5e5e" stroke-width="2" fill="#5e5e5e"/><path d="M1279.66 1003.17c-1.14.1-2.05.34-2.96.8l-39.44 19.43c-2.16 1.02-3.64 2.84-4.1 5.23l-9.77 43.76c-.47 2.04-.13 4.08 1 5.9.13.23.24.34.47.57l27.28 35c1.48 1.94 3.52 2.97 5.9 2.97h43.9c2.38 0 4.42-1.03 5.9-2.96l27.28-35c1.48-1.94 2.05-4.2 1.48-6.6l-9.77-43.65c-.45-2.4-1.93-4.2-4.1-5.23l-39.43-19.44c-1.25-.57-2.4-.9-3.64-.8z" stroke="#000" stroke-opacity="0" stroke-width="3.83" fill="#326ce5"/><path d="M1279.64 1000c-1.2.12-2.16.36-3.12.84l-41.64 20.52c-2.28 1.08-3.84 3-4.32 5.52l-10.32 46.2c-.48 2.16-.12 4.32 1.08 6.24.12.24.24.36.48.6l28.8 36.96c1.56 2.04 3.72 3.12 6.24 3.12h46.32c2.52 0 4.68-1.08 6.24-3.12l28.8-36.96c1.56-2.04 2.16-4.44 1.56-6.84l-10.32-46.2c-.48-2.52-2.04-4.44-4.32-5.52l-41.64-20.52c-1.32-.6-2.52-.96-3.84-.84zm0 3.24c1.32-.12 2.4.12 3.6.72l39.6 19.44c2.04 1.08 3.48 2.88 4.08 5.28l9.72 43.68c.48 2.4 0 4.56-1.44 6.48l-27.36 35.04c-1.44 1.92-3.48 3-5.88 3h-43.92c-2.4 0-4.44-1.08-5.88-3l-27.36-35.04c-.12-.12-.24-.36-.36-.6-1.2-1.8-1.56-3.72-1.08-5.88l9.72-43.68c.6-2.4 1.92-4.2 4.08-5.28l39.6-19.44c.96-.48 1.8-.72 2.88-.84z" stroke="#000" stroke-opacity="0" stroke-width="3.83" fill="#fff"/><path d="M1282.13 1046.47v5.43h25.6v-5.43zM1268.98 1031.95v5.44h38.76v-5.45zM1252.26 1031.95v5.44h9.7v-5.45zM1283.07 1060.97v5.45h24.67v-5.45zM1268.98 1075.5v5.42h38.76v-5.43zM1252.26 1075.5v5.42h9.7v-5.43z" stroke="#000" stroke-opacity="0" stroke-width="3.77" fill="#fff"/><path d="M1283.8 1067.2c0 2.1-1.65 3.8-3.68 3.8-2.04 0-3.7-1.7-3.7-3.8 0-2.1 1.66-3.82 3.7-3.82 2.03 0 3.7 1.7 3.7 3.8z" stroke="#000" stroke-opacity="0" stroke-width="3.77" fill="#326ce5"/><path d="M1265.56 1050.78l6.65.08c2.5-10.6 14.5-8.62 15.87.3l6.53-.38c-2.1-17.37-26.2-19.9-28.72-1.85z" stroke="#000" stroke-opacity="0" stroke-width="3.77" fill="#fff"/><path d="M1279.97 1035.92c-8.74 0-15.9 6.87-15.9 15.4 2.5-.04 7.92.1 8.78 0 0-3.45 3.12-6.35 7.12-6.35s7.13 2.9 7.13 6.34c1.52.07 7.92-.28 8.77 0 0-8.5-7.15-15.38-15.9-15.38zm0 1.8c7.48 0 13.2 5.7 13.77 12.7h-5.3c-.55-4.06-4.02-7.26-8.47-7.26-4.45 0-7.92 3.2-8.46 7.25h-5.27c.54-6.98 6.27-12.67 13.74-12.67z" stroke="#000" stroke-opacity="0" stroke-width="3.77" fill="#326ce5"/><path d="M1260.88 1051.46h37.8v24.26h-37.8v-24.26z" stroke="#000" stroke-opacity="0" stroke-width="3.77" fill="#fff"/><path d="M1260.57 1050.18v26.9h39.13v-26.9zm1.76 1.83h35.6v23.25h-35.6z" stroke="#000" stroke-opacity="0" stroke-width="3.77" fill="#326ce5"/><path d="M1262.8 1103.57c0 .96-.35 1.7-1.06 2.23-.7.52-1.7.78-2.96.78-1.23 0-2.2-.2-2.86-.62-.66-.43-1.1-1.08-1.3-1.97l1.46-.3c.13.54.43.95.86 1.2.45.26 1.06.4 1.84.4.84 0 1.45-.15 1.83-.4.4-.28.6-.68.6-1.2 0-.4-.13-.74-.4-1-.27-.23-.7-.44-1.3-.6l-1.2-.33c-.93-.25-1.6-.5-2-.74-.4-.24-.72-.54-.94-.9-.23-.33-.35-.76-.35-1.26 0-.93.33-1.64.98-2.12.64-.5 1.6-.74 2.82-.74 1.1 0 1.96.2 2.6.6.65.4 1.06 1.04 1.23 1.9l-1.5.2c-.08-.45-.32-.8-.72-1.04-.4-.25-.93-.36-1.6-.36-.74 0-1.3.1-1.65.35-.35.23-.53.58-.53 1.05 0 .3.07.53.22.72.14.18.36.35.64.48.3.14.9.32 1.82.55.88.22 1.5.43 1.9.63.38.2.68.4.9.64.22.23.4.5.52.8.13.3.18.66.18 1.05zM1266 1101.64c0 1.17.24 2.08.72 2.7.46.65 1.15.97 2.06.97.7 0 1.3-.14 1.72-.44.43-.3.72-.66.87-1.12l1.45.42c-.6 1.62-1.94 2.42-4.04 2.42-1.47 0-2.6-.44-3.36-1.35-.76-.9-1.14-2.24-1.14-4 0-1.7.38-3 1.14-3.9.77-.9 1.87-1.35 3.3-1.35 2.9 0 4.37 1.8 4.37 5.43v.24zm5.38-1.3c-.1-1.08-.35-1.87-.8-2.36-.44-.5-1.07-.74-1.9-.74-.8 0-1.43.28-1.9.83-.47.55-.7 1.3-.75 2.27zM1276.45 1101.24c0 1.36.2 2.36.63 3.02.4.66 1.04.98 1.87.98.6 0 1.08-.16 1.47-.5.4-.32.65-.82.74-1.5l1.66.1c-.13 1-.53 1.78-1.22 2.36-.68.6-1.54.88-2.6.88-1.4 0-2.45-.44-3.18-1.34-.73-.92-1.1-2.23-1.1-3.97 0-1.72.37-3.03 1.1-3.93.74-.9 1.8-1.36 3.16-1.36 1.02 0 1.86.28 2.52.82.68.54 1.1 1.28 1.27 2.23l-1.7.13c-.08-.56-.3-1.02-.65-1.34-.35-.34-.84-.5-1.48-.5-.88 0-1.5.3-1.9.9-.4.6-.6 1.6-.6 3.02zM1284.62 1106.4v-7.85c0-.72-.02-1.5-.05-2.38h1.55l.08 2.1h.03c.27-.9.57-1.5.9-1.8.36-.34.84-.5 1.46-.5.2 0 .43.04.66.1v1.56c-.22-.06-.5-.1-.88-.1-.68 0-1.2.3-1.57.93-.35.6-.53 1.46-.53 2.6v5.33zM1292.12 1101.64c0 1.17.23 2.08.7 2.7.47.65 1.16.97 2.07.97.7 0 1.27-.14 1.7-.44.44-.3.73-.66.88-1.12l1.45.42c-.6 1.62-1.94 2.42-4.04 2.42-1.48 0-2.6-.44-3.37-1.35-.77-.9-1.14-2.24-1.14-4 0-1.7.36-3 1.13-3.9.77-.9 1.87-1.35 3.3-1.35 2.9 0 4.36 1.8 4.36 5.43v.24zm5.37-1.3c-.1-1.08-.37-1.87-.8-2.36-.45-.5-1.08-.74-1.9-.74-.8 0-1.44.28-1.9.83-.48.55-.73 1.3-.76 2.27zM1305.12 1106.3c-.55.17-1.1.24-1.67.24-1.32 0-1.98-.77-1.98-2.3v-6.84h-1.15v-1.23h1.2l.5-2.3h1.1v2.3h1.83v1.23h-1.83v6.46c0 .5.07.83.23 1.04.15.2.43.3.8.3.23 0 .55-.05.97-.14z" stroke="#000" stroke-opacity="0" fill="#fff"/><path d="M1283.82 1063.63c0 2.1-1.65 3.8-3.7 3.8-2.03 0-3.68-1.7-3.68-3.8 0-2.1 1.65-3.8 3.7-3.8 2.03 0 3.68 1.7 3.68 3.8z" stroke="#000" stroke-opacity="0" stroke-width="3.77" fill="#326ce5"/><g><use xlink:href="#k" transform="matrix(1,0,0,1,1190,1129) translate(57.9320987654321 17.77777777777778)"/></g><defs><path fill="#333" d="M30-248c118-7 216 8 213 122C240-48 200 0 122 0H30v-248zM63-27c89 8 146-16 146-99s-60-101-146-95v194" id="l"/><path fill="#333" d="M100-194c63 0 86 42 84 106H49c0 40 14 67 53 68 26 1 43-12 49-29l28 8c-11 28-37 45-77 45C44 4 14-33 15-96c1-61 26-98 85-98zm52 81c6-60-76-77-97-28-3 7-6 17-6 28h103" id="m"/><path fill="#333" d="M115-194c53 0 69 39 70 98 0 66-23 100-70 100C84 3 66-7 56-30L54 0H23l1-261h32v101c10-23 28-34 59-34zm-8 174c40 0 45-34 45-75 0-40-5-75-45-74-42 0-51 32-51 76 0 43 10 73 51 73" id="n"/><path fill="#333" d="M9 0v-24l116-142H16v-24h144v24L44-24h123V0H9" id="o"/><path fill="#333" d="M24-231v-30h32v30H24zM24 0v-190h32V0H24" id="p"/><path fill="#333" d="M84 4C-5 8 30-112 23-190h32v120c0 31 7 50 39 49 72-2 45-101 50-169h31l1 190h-30c-1-10 1-25-2-33-11 22-28 36-60 37" id="q"/><path fill="#333" d="M210-169c-67 3-38 105-44 169h-31v-121c0-29-5-50-35-48C34-165 62-65 56 0H25l-1-190h30c1 10-1 24 2 32 10-44 99-50 107 0 11-21 27-35 58-36 85-2 47 119 55 194h-31v-121c0-29-5-49-35-48" id="r"/><path fill="#333" d="M16-82v-28h88v28H16" id="s"/><path fill="#333" d="M135-143c-3-34-86-38-87 0 15 53 115 12 119 90S17 21 10-45l28-5c4 36 97 45 98 0-10-56-113-15-118-90-4-57 82-63 122-42 12 7 21 19 24 35" id="t"/><path fill="#333" d="M114-163C36-179 61-72 57 0H25l-1-190h30c1 12-1 29 2 39 6-27 23-49 58-41v29" id="u"/><path fill="#333" d="M108 0H70L1-190h34L89-25l56-165h34" id="v"/><g id="a"><use transform="matrix(0.06172839506172839,0,0,0.06172839506172839,0,0)" xlink:href="#l"/><use transform="matrix(0.06172839506172839,0,0,0.06172839506172839,15.987654320987653,0)" xlink:href="#m"/><use transform="matrix(0.06172839506172839,0,0,0.06172839506172839,28.333333333333332,0)" xlink:href="#n"/><use transform="matrix(0.06172839506172839,0,0,0.06172839506172839,40.67901234567901,0)" xlink:href="#m"/><use transform="matrix(0.06172839506172839,0,0,0.06172839506172839,53.02469135802469,0)" xlink:href="#o"/><use transform="matrix(0.06172839506172839,0,0,0.06172839506172839,64.1358024691358,0)" xlink:href="#p"/><use transform="matrix(0.06172839506172839,0,0,0.06172839506172839,69.01234567901234,0)" xlink:href="#q"/><use transform="matrix(0.06172839506172839,0,0,0.06172839506172839,81.35802469135803,0)" xlink:href="#r"/><use transform="matrix(0.06172839506172839,0,0,0.06172839506172839,99.81481481481481,0)" xlink:href="#s"/><use transform="matrix(0.06172839506172839,0,0,0.06172839506172839,107.1604938271605,0)" xlink:href="#t"/><use transform="matrix(0.06172839506172839,0,0,0.06172839506172839,118.27160493827161,0)" xlink:href="#m"/><use transform="matrix(0.06172839506172839,0,0,0.06172839506172839,130.6172839506173,0)" xlink:href="#u"/><use transform="matrix(0.06172839506172839,0,0,0.06172839506172839,137.96296296296296,0)" xlink:href="#v"/><use transform="matrix(0.06172839506172839,0,0,0.06172839506172839,149.07407407407408,0)" xlink:href="#m"/><use transform="matrix(0.06172839506172839,0,0,0.06172839506172839,161.41975308641975,0)" xlink:href="#u"/></g><path fill="#333" d="M59-47c-2 24 18 29 38 22v24C64 9 27 4 27-40v-127H5v-23h24l9-43h21v43h35v23H59v120" id="w"/><path fill="#333" d="M141-36C126-15 110 5 73 4 37 3 15-17 15-53c-1-64 63-63 125-63 3-35-9-54-41-54-24 1-41 7-42 31l-33-3c5-37 33-52 76-52 45 0 72 20 72 64v82c-1 20 7 32 28 27v20c-31 9-61-2-59-35zM48-53c0 20 12 33 32 33 41-3 63-29 60-74-43 2-92-5-92 41" id="x"/><path fill="#333" d="M177-190C167-65 218 103 67 71c-23-6-38-20-44-43l32-5c15 47 100 32 89-28v-30C133-14 115 1 83 1 29 1 15-40 15-95c0-56 16-97 71-98 29-1 48 16 59 35 1-10 0-23 2-32h30zM94-22c36 0 50-32 50-73 0-42-14-75-50-75-39 0-46 34-46 75s6 73 46 73" id="y"/><g id="b"><use transform="matrix(0.06172839506172839,0,0,0.06172839506172839,0,0)" xlink:href="#w"/><use transform="matrix(0.06172839506172839,0,0,0.06172839506172839,6.172839506172839,0)" xlink:href="#x"/><use transform="matrix(0.06172839506172839,0,0,0.06172839506172839,18.51851851851852,0)" xlink:href="#u"/><use transform="matrix(0.06172839506172839,0,0,0.06172839506172839,25.864197530864196,0)" xlink:href="#y"/><use transform="matrix(0.06172839506172839,0,0,0.06172839506172839,38.20987654320987,0)" xlink:href="#m"/><use transform="matrix(0.06172839506172839,0,0,0.06172839506172839,50.55555555555555,0)" xlink:href="#w"/></g><path fill="#333" d="M179-190L93 31C79 59 56 82 12 73V49c39 6 53-20 64-50L1-190h34L92-34l54-156h33" id="z"/><g id="c"><use transform="matrix(0.06172839506172839,0,0,0.06172839506172839,0,0)" xlink:href="#t"/><use transform="matrix(0.06172839506172839,0,0,0.06172839506172839,11.11111111111111,0)" xlink:href="#z"/><use transform="matrix(0.06172839506172839,0,0,0.06172839506172839,22.22222222222222,0)" xlink:href="#t"/><use transform="matrix(0.06172839506172839,0,0,0.06172839506172839,33.33333333333333,0)" xlink:href="#w"/><use transform="matrix(0.06172839506172839,0,0,0.06172839506172839,39.50617283950617,0)" xlink:href="#m"/><use transform="matrix(0.06172839506172839,0,0,0.06172839506172839,51.85185185185185,0)" xlink:href="#r"/></g><path fill="#333" d="M212-179c-10-28-35-45-73-45-59 0-87 40-87 99 0 60 29 101 89 101 43 0 62-24 78-52l27 14C228-24 195 4 139 4 59 4 22-46 18-125c-6-104 99-153 187-111 19 9 31 26 39 46" id="A"/><path fill="#333" d="M100-194c62-1 85 37 85 99 1 63-27 99-86 99S16-35 15-95c0-66 28-99 85-99zM99-20c44 1 53-31 53-75 0-43-8-75-51-75s-53 32-53 75 10 74 51 75" id="B"/><path fill="#333" d="M117-194c89-4 53 116 60 194h-32v-121c0-31-8-49-39-48C34-167 62-67 57 0H25l-1-190h30c1 10-1 24 2 32 11-22 29-35 61-36" id="C"/><path fill="#333" d="M101-234c-31-9-42 10-38 44h38v23H63V0H32v-167H5v-23h27c-7-52 17-82 69-68v24" id="D"/><path fill="#333" d="M115-194c55 1 70 41 70 98S169 2 115 4C84 4 66-9 55-30l1 105H24l-1-265h31l2 30c10-21 28-34 59-34zm-8 174c40 0 45-34 45-75s-6-73-45-74c-42 0-51 32-51 76 0 43 10 73 51 73" id="E"/><g id="d"><use transform="matrix(0.06172839506172839,0,0,0.06172839506172839,0,0)" xlink:href="#A"/><use transform="matrix(0.06172839506172839,0,0,0.06172839506172839,15.987654320987653,0)" xlink:href="#B"/><use transform="matrix(0.06172839506172839,0,0,0.06172839506172839,28.333333333333332,0)" xlink:href="#C"/><use transform="matrix(0.06172839506172839,0,0,0.06172839506172839,40.67901234567901,0)" xlink:href="#D"/><use transform="matrix(0.06172839506172839,0,0,0.06172839506172839,46.851851851851855,0)" xlink:href="#p"/><use transform="matrix(0.06172839506172839,0,0,0.06172839506172839,51.7283950617284,0)" xlink:href="#y"/><use transform="matrix(0.06172839506172839,0,0,0.06172839506172839,64.07407407407408,0)" xlink:href="#r"/><use transform="matrix(0.06172839506172839,0,0,0.06172839506172839,82.53086419753086,0)" xlink:href="#x"/><use transform="matrix(0.06172839506172839,0,0,0.06172839506172839,94.87654320987654,0)" xlink:href="#E"/></g><path fill="#333" d="M0 4l72-265h28L28 4H0" id="F"/><path fill="#333" d="M85-194c31 0 48 13 60 33l-1-100h32l1 261h-30c-2-10 0-23-3-31C134-8 116 4 85 4 32 4 16-35 15-94c0-66 23-100 70-100zm9 24c-40 0-46 34-46 75 0 40 6 74 45 74 42 0 51-32 51-76 0-42-9-74-50-73" id="G"/><g id="e"><use transform="matrix(0.06172839506172839,0,0,0.06172839506172839,0,0)" xlink:href="#F"/><use transform="matrix(0.06172839506172839,0,0,0.06172839506172839,6.172839506172839,0)" xlink:href="#G"/><use transform="matrix(0.06172839506172839,0,0,0.06172839506172839,18.51851851851852,0)" xlink:href="#m"/><use transform="matrix(0.06172839506172839,0,0,0.06172839506172839,30.864197530864196,0)" xlink:href="#n"/><use transform="matrix(0.06172839506172839,0,0,0.06172839506172839,43.20987654320987,0)" xlink:href="#m"/><use transform="matrix(0.06172839506172839,0,0,0.06172839506172839,55.55555555555555,0)" xlink:href="#o"/><use transform="matrix(0.06172839506172839,0,0,0.06172839506172839,66.66666666666666,0)" xlink:href="#p"/><use transform="matrix(0.06172839506172839,0,0,0.06172839506172839,71.5432098765432,0)" xlink:href="#q"/><use transform="matrix(0.06172839506172839,0,0,0.06172839506172839,83.88888888888889,0)" xlink:href="#r"/><use transform="matrix(0.06172839506172839,0,0,0.06172839506172839,102.34567901234567,0)" xlink:href="#F"/><use transform="matrix(0.06172839506172839,0,0,0.06172839506172839,108.5185185185185,0)" xlink:href="#G"/><use transform="matrix(0.06172839506172839,0,0,0.06172839506172839,120.86419753086419,0)" xlink:href="#x"/><use transform="matrix(0.06172839506172839,0,0,0.06172839506172839,133.20987654320987,0)" xlink:href="#w"/><use transform="matrix(0.06172839506172839,0,0,0.06172839506172839,139.3827160493827,0)" xlink:href="#x"/></g><path fill="#333" d="M96-169c-40 0-48 33-48 73s9 75 48 75c24 0 41-14 43-38l32 2c-6 37-31 61-74 61-59 0-76-41-82-99-10-93 101-131 147-64 4 7 5 14 7 22l-32 3c-4-21-16-35-41-35" id="H"/><g id="f"><use transform="matrix(0.06172839506172839,0,0,0.06172839506172839,0,0)" xlink:href="#t"/><use transform="matrix(0.06172839506172839,0,0,0.06172839506172839,11.11111111111111,0)" xlink:href="#B"/><use transform="matrix(0.06172839506172839,0,0,0.06172839506172839,23.45679012345679,0)" xlink:href="#q"/><use transform="matrix(0.06172839506172839,0,0,0.06172839506172839,35.80246913580247,0)" xlink:href="#u"/><use transform="matrix(0.06172839506172839,0,0,0.06172839506172839,43.148148148148145,0)" xlink:href="#H"/><use transform="matrix(0.06172839506172839,0,0,0.06172839506172839,54.25925925925925,0)" xlink:href="#m"/></g><path fill="#333" d="M143 0L79-87 56-68V0H24v-261h32v163l83-92h37l-77 82L181 0h-38" id="I"/><g id="g"><use transform="matrix(0.06172839506172839,0,0,0.06172839506172839,0,0)" xlink:href="#t"/><use transform="matrix(0.06172839506172839,0,0,0.06172839506172839,11.11111111111111,0)" xlink:href="#p"/><use transform="matrix(0.06172839506172839,0,0,0.06172839506172839,15.987654320987653,0)" xlink:href="#C"/><use transform="matrix(0.06172839506172839,0,0,0.06172839506172839,28.333333333333332,0)" xlink:href="#I"/><use transform="matrix(0.06172839506172839,0,0,0.06172839506172839,39.44444444444444,0)" xlink:href="#s"/><use transform="matrix(0.06172839506172839,0,0,0.06172839506172839,46.79012345679012,0)" xlink:href="#t"/><use transform="matrix(0.06172839506172839,0,0,0.06172839506172839,57.90123456790123,0)" xlink:href="#m"/><use transform="matrix(0.06172839506172839,0,0,0.06172839506172839,70.24691358024691,0)" xlink:href="#u"/><use transform="matrix(0.06172839506172839,0,0,0.06172839506172839,77.5925925925926,0)" xlink:href="#v"/><use transform="matrix(0.06172839506172839,0,0,0.06172839506172839,88.70370370370371,0)" xlink:href="#p"/><use transform="matrix(0.06172839506172839,0,0,0.06172839506172839,93.58024691358025,0)" xlink:href="#H"/><use transform="matrix(0.06172839506172839,0,0,0.06172839506172839,104.69135802469137,0)" xlink:href="#m"/></g><g id="h"><use transform="matrix(0.06172839506172839,0,0,0.06172839506172839,0,0)" xlink:href="#t"/><use transform="matrix(0.06172839506172839,0,0,0.06172839506172839,11.11111111111111,0)" xlink:href="#B"/><use transform="matrix(0.06172839506172839,0,0,0.06172839506172839,23.45679012345679,0)" xlink:href="#q"/><use transform="matrix(0.06172839506172839,0,0,0.06172839506172839,35.80246913580247,0)" xlink:href="#u"/><use transform="matrix(0.06172839506172839,0,0,0.06172839506172839,43.148148148148145,0)" xlink:href="#H"/><use transform="matrix(0.06172839506172839,0,0,0.06172839506172839,54.25925925925925,0)" xlink:href="#m"/><use transform="matrix(0.06172839506172839,0,0,0.06172839506172839,66.60493827160494,0)" xlink:href="#s"/><use transform="matrix(0.06172839506172839,0,0,0.06172839506172839,73.95061728395062,0)" xlink:href="#t"/><use transform="matrix(0.06172839506172839,0,0,0.06172839506172839,85.06172839506173,0)" xlink:href="#m"/><use transform="matrix(0.06172839506172839,0,0,0.06172839506172839,97.40740740740742,0)" xlink:href="#u"/><use transform="matrix(0.06172839506172839,0,0,0.06172839506172839,104.7530864197531,0)" xlink:href="#v"/><use transform="matrix(0.06172839506172839,0,0,0.06172839506172839,115.86419753086422,0)" xlink:href="#p"/><use transform="matrix(0.06172839506172839,0,0,0.06172839506172839,120.74074074074076,0)" xlink:href="#H"/><use transform="matrix(0.06172839506172839,0,0,0.06172839506172839,131.85185185185188,0)" xlink:href="#m"/></g><g id="i"><use transform="matrix(0.06172839506172839,0,0,0.06172839506172839,0,0)" xlink:href="#G"/><use transform="matrix(0.06172839506172839,0,0,0.06172839506172839,12.345679012345679,0)" xlink:href="#x"/><use transform="matrix(0.06172839506172839,0,0,0.06172839506172839,24.691358024691358,0)" xlink:href="#w"/><use transform="matrix(0.06172839506172839,0,0,0.06172839506172839,30.864197530864196,0)" xlink:href="#x"/></g><g id="j"><use transform="matrix(0.06172839506172839,0,0,0.06172839506172839,0,0)" xlink:href="#H"/><use transform="matrix(0.06172839506172839,0,0,0.06172839506172839,11.11111111111111,0)" xlink:href="#B"/><use transform="matrix(0.06172839506172839,0,0,0.06172839506172839,23.45679012345679,0)" xlink:href="#C"/><use transform="matrix(0.06172839506172839,0,0,0.06172839506172839,35.80246913580247,0)" xlink:href="#D"/></g><path fill="#333" d="M185-189c-5-48-123-54-124 2 14 75 158 14 163 119 3 78-121 87-175 55-17-10-28-26-33-46l33-7c5 56 141 63 141-1 0-78-155-14-162-118-5-82 145-84 179-34 5 7 8 16 11 25" id="J"/><g id="k"><use transform="matrix(0.06172839506172839,0,0,0.06172839506172839,0,0)" xlink:href="#J"/><use transform="matrix(0.06172839506172839,0,0,0.06172839506172839,14.814814814814813,0)" xlink:href="#m"/><use transform="matrix(0.06172839506172839,0,0,0.06172839506172839,27.160493827160494,0)" xlink:href="#H"/><use transform="matrix(0.06172839506172839,0,0,0.06172839506172839,38.27160493827161,0)" xlink:href="#u"/><use transform="matrix(0.06172839506172839,0,0,0.06172839506172839,45.617283950617285,0)" xlink:href="#m"/><use transform="matrix(0.06172839506172839,0,0,0.06172839506172839,57.96296296296296,0)" xlink:href="#w"/></g></defs></g></svg>